<svg width="100" height="100" viewBox="0 0 100 100" fill="none" xmlns="http://www.w3.org/2000/svg">
<circle cx="50" cy="50" r="50" fill="#3D53FF"/>
<path d="M51.9375 61.6249C55.3864 61.6249 58.7577 60.6022 61.6253 58.6862C64.4929 56.7701 66.7279 54.0467 68.0477 50.8604C69.3675 47.6742 69.7128 44.1681 69.04 40.7855C68.3672 37.403 66.7064 34.2959 64.2677 31.8572C61.829 29.4186 58.722 27.7578 55.3394 27.085C51.9569 26.4121 48.4508 26.7575 45.2645 28.0773C42.0782 29.3971 39.3549 31.6321 37.4388 34.4997C35.5227 37.3672 34.5 40.7386 34.5 44.1874C34.5052 48.8105 36.344 53.2429 39.613 56.5119C42.8821 59.781 47.3144 61.6198 51.9375 61.6249ZM51.9375 32.5624C54.2368 32.5624 56.4843 33.2442 58.3961 34.5216C60.3078 35.7989 61.7978 37.6145 62.6777 39.7387C63.5575 41.8629 63.7877 44.2003 63.3392 46.4553C62.8906 48.7104 61.7835 50.7817 60.1577 52.4075C58.5319 54.0333 56.4605 55.1405 54.2055 55.589C51.9504 56.0376 49.613 55.8074 47.4889 54.9275C45.3647 54.0476 43.5491 52.5576 42.2717 50.6459C40.9943 48.7342 40.3125 46.4866 40.3125 44.1874C40.3158 41.1052 41.5416 38.1502 43.721 35.9708C45.9004 33.7914 48.8554 32.5656 51.9375 32.5624ZM54.8438 71.155V74.2187H59.6875C60.4583 74.2187 61.1975 74.5249 61.7426 75.0699C62.2876 75.6149 62.5938 76.3541 62.5938 77.1249C62.5938 77.8957 62.2876 78.6349 61.7426 79.1799C61.1975 79.725 60.4583 80.0312 59.6875 80.0312H44.1875C43.4168 80.0312 42.6775 79.725 42.1325 79.1799C41.5875 78.6349 41.2813 77.8957 41.2813 77.1249C41.2813 76.3541 41.5875 75.6149 42.1325 75.0699C42.6775 74.5249 43.4168 74.2187 44.1875 74.2187H49.0313V71.1574C44.0297 70.6186 39.2765 68.6996 35.3028 65.6147C31.3292 62.5299 28.2916 58.4008 26.5297 53.6889C24.7678 48.977 24.3509 43.868 25.3256 38.9328C26.3003 33.9976 28.6282 29.4307 32.0491 25.7424C32.3062 25.4535 32.6184 25.2188 32.9673 25.052C33.3163 24.8853 33.695 24.7899 34.0813 24.7714C34.4676 24.7529 34.8537 24.8117 35.217 24.9443C35.5803 25.077 35.9135 25.2808 36.197 25.5438C36.4805 25.8069 36.7086 26.1238 36.8681 26.4762C37.0275 26.8285 37.115 27.2092 37.1255 27.5958C37.1359 27.9824 37.0691 28.3672 36.9289 28.7276C36.7888 29.0881 36.5781 29.4169 36.3092 29.6949C32.5495 33.7358 30.5041 39.0778 30.6035 44.5964C30.703 50.115 32.9395 55.3797 36.8423 59.2826C40.7452 63.1855 46.01 65.422 51.5286 65.5214C57.0472 65.6209 62.3891 63.5755 66.43 59.8158C66.708 59.5469 67.0369 59.3362 67.3973 59.196C67.7578 59.0558 68.1426 58.989 68.5292 58.9995C68.9158 59.0099 69.2964 59.0974 69.6488 59.2569C70.0011 59.4163 70.3181 59.6445 70.5811 59.928C70.8442 60.2115 71.048 60.5447 71.1806 60.908C71.3133 61.2712 71.3721 61.6574 71.3536 62.0437C71.3351 62.43 71.2397 62.8087 71.0729 63.1576C70.9062 63.5066 70.6715 63.8188 70.3826 64.0758C66.1049 68.054 60.6527 70.5379 54.8438 71.155Z" fill="white"/>
</svg>
