<svg width="100" height="100" viewBox="0 0 100 100" fill="none" xmlns="http://www.w3.org/2000/svg">
<circle cx="50" cy="50" r="50" fill="#1DC9FF"/>
<path d="M44.8505 30.9798C44.3612 30.4918 43.7569 30.1349 43.0933 29.942C42.4297 29.7491 41.7281 29.7265 41.0535 29.8762C40.3788 30.026 39.7527 30.3432 39.233 30.7987C38.7133 31.2542 38.3166 31.8332 38.0797 32.4824L24.4104 70.0814C24.1859 70.7014 24.1133 71.3663 24.1989 72.0201C24.2845 72.674 24.5257 73.2978 24.9022 73.8391C25.2788 74.3805 25.7797 74.8236 26.363 75.1313C26.9462 75.439 27.5948 75.6023 28.2542 75.6074C28.7397 75.6041 29.2209 75.516 29.6761 75.347L67.2724 61.6751C67.9218 61.4385 68.5011 61.0421 68.9569 60.5225C69.4127 60.0029 69.7302 59.3768 69.8802 58.7021C70.0302 58.0274 70.0078 57.3258 69.8151 56.6621C69.6224 55.9983 69.2656 55.3938 68.7776 54.9043L44.8505 30.9798ZM42.6813 66.1908L33.5667 57.0762L36.9938 47.6465L52.111 62.7637L42.6813 66.1908ZM28.3584 71.3991L32.0042 61.3965L38.3714 67.7637L28.3584 71.3991ZM56.4417 61.1908L38.5667 43.3158L41.9521 33.9746L65.762 57.7845L56.4417 61.1908ZM57.4834 36.0241C57.5225 34.6157 57.8635 33.2321 58.4833 31.9668C59.8636 29.209 62.4677 27.6908 65.8167 27.6908C67.5615 27.6908 68.6813 27.0944 69.3714 25.8132C69.7347 25.0963 69.9433 24.3111 69.9833 23.5085C69.9854 22.9559 70.2069 22.4268 70.5991 22.0376C70.9912 21.6484 71.522 21.4309 72.0745 21.4329C72.627 21.435 73.1561 21.6565 73.5453 22.0487C73.9346 22.4408 74.1521 22.9716 74.15 23.5241C74.15 26.873 71.9313 31.8574 65.8167 31.8574C64.0719 31.8574 62.9521 32.4538 62.262 33.735C61.8986 34.4518 61.6901 35.2371 61.65 36.0397C61.649 36.3133 61.5941 36.584 61.4884 36.8364C61.3828 37.0887 61.2285 37.3178 61.0343 37.5106C60.8401 37.7033 60.6099 37.8559 60.3567 37.9596C60.1036 38.0634 59.8325 38.1163 59.5589 38.1152C59.2853 38.1142 59.0146 38.0593 58.7622 37.9537C58.5098 37.848 58.2808 37.6937 58.088 37.4995C57.8953 37.3053 57.7427 37.0751 57.6389 36.8219C57.5352 36.5688 57.4823 36.2977 57.4834 36.0241ZM51.2334 27.6908V21.4408C51.2334 20.8882 51.4528 20.3583 51.8435 19.9676C52.2342 19.5769 52.7642 19.3574 53.3167 19.3574C53.8692 19.3574 54.3991 19.5769 54.7898 19.9676C55.1805 20.3583 55.4 20.8882 55.4 21.4408V27.6908C55.4 28.2433 55.1805 28.7732 54.7898 29.1639C54.3991 29.5546 53.8692 29.7741 53.3167 29.7741C52.7642 29.7741 52.2342 29.5546 51.8435 29.1639C51.4528 28.7732 51.2334 28.2433 51.2334 27.6908ZM77.7073 49.1335C77.9007 49.327 78.0541 49.5568 78.1587 49.8096C78.2633 50.0625 78.317 50.3334 78.3169 50.607C78.3168 50.8807 78.2628 51.1516 78.158 51.4043C78.0532 51.6571 77.8996 51.8867 77.706 52.0801C77.5124 52.2735 77.2827 52.4268 77.0298 52.5314C76.777 52.636 76.506 52.6898 76.2324 52.6897C75.9588 52.6896 75.6879 52.6356 75.4352 52.5307C75.1824 52.4259 74.9528 52.2723 74.7594 52.0788L70.5927 47.9121C70.2018 47.5212 69.9822 46.991 69.9822 46.4382C69.9822 45.8853 70.2018 45.3551 70.5927 44.9642C70.9836 44.5733 71.5138 44.3537 72.0667 44.3537C72.6195 44.3537 73.1497 44.5733 73.5406 44.9642L77.7073 49.1335ZM78.9755 38.0007L72.7255 40.084C72.2013 40.2587 71.6292 40.2181 71.1349 39.9709C70.6407 39.7238 70.2649 39.2905 70.0901 38.7663C69.9154 38.2421 69.956 37.6699 70.2032 37.1757C70.4503 36.6814 70.8836 36.3056 71.4078 36.1309L77.6578 34.0475C78.182 33.8728 78.7542 33.9134 79.2484 34.1606C79.7427 34.4077 80.1185 34.841 80.2932 35.3652C80.468 35.8895 80.4273 36.4616 80.1802 36.9558C79.9331 37.4501 79.4998 37.8259 78.9755 38.0007Z" fill="white"/>
</svg>
