<svg width="100" height="100" viewBox="0 0 100 100" fill="none" xmlns="http://www.w3.org/2000/svg">
<circle cx="50" cy="50" r="50" fill="#BA47ED"/>
<g clip-path="url(#clip0_8087_25183)">
<path d="M41.0926 55.5935C40.2102 55.5935 39.3475 55.3318 38.6138 54.8415C37.8801 54.3513 37.3082 53.6544 36.9705 52.8391C36.6328 52.0239 36.5444 51.1267 36.7166 50.2612C36.8887 49.3957 37.3137 48.6007 37.9377 47.9767C38.5617 47.3527 39.3567 46.9278 40.2222 46.7556C41.0877 46.5835 41.9848 46.6718 42.8001 47.0095C43.6154 47.3472 44.3122 47.9191 44.8025 48.6528C45.2928 49.3866 45.5544 50.2492 45.5544 51.1317C45.5544 52.315 45.0844 53.4499 44.2476 54.2866C43.4109 55.1234 42.276 55.5935 41.0926 55.5935ZM61.1707 46.6699C60.2883 46.6699 59.4256 46.9316 58.6919 47.4218C57.9582 47.9121 57.3863 48.6089 57.0486 49.4242C56.7109 50.2395 56.6225 51.1366 56.7947 52.0021C56.9668 52.8676 57.3918 53.6627 58.0158 54.2866C58.6398 54.9106 59.4348 55.3356 60.3003 55.5077C61.1658 55.6799 62.0629 55.5916 62.8782 55.2538C63.6935 54.9161 64.3903 54.3443 64.8806 53.6105C65.3709 52.8768 65.6325 52.0141 65.6325 51.1317C65.6325 49.9483 65.1625 48.8135 64.3257 47.9767C63.489 47.14 62.3541 46.6699 61.1707 46.6699ZM57.1551 60.5712C55.3461 61.6924 53.26 62.2865 51.1317 62.2865C49.0034 62.2865 46.9173 61.6924 45.1083 60.5712C44.7365 60.331 44.3209 60.167 43.8853 60.0886C43.4498 60.0101 43.003 60.0189 42.5708 60.1143C42.1387 60.2097 41.7298 60.3899 41.3677 60.6444C41.0057 60.899 40.6978 61.2228 40.4617 61.5971C40.2257 61.9715 40.0662 62.3889 39.9926 62.8253C39.919 63.2617 39.9327 63.7084 40.0328 64.1394C40.133 64.5705 40.3177 64.9774 40.5762 65.3366C40.8347 65.6958 41.1619 66.0002 41.5388 66.2321C44.4165 68.027 47.7401 68.9786 51.1317 68.9786C54.5233 68.9786 57.8469 68.027 60.7246 66.2321C61.1015 66.0002 61.4287 65.6958 61.6872 65.3366C61.9457 64.9774 62.1304 64.5705 62.2305 64.1394C62.3307 63.7084 62.3444 63.2617 62.2708 62.8253C62.1972 62.3889 62.0377 61.9715 61.8017 61.5971C61.5656 61.2228 61.2577 60.899 60.8956 60.6444C60.5336 60.3899 60.1247 60.2097 59.6925 60.1143C59.2604 60.0189 58.8136 60.0101 58.3781 60.0886C57.9425 60.167 57.5269 60.331 57.1551 60.5712ZM81.2489 51.1317C81.2489 57.0883 79.4825 62.9111 76.1732 67.8639C72.8639 72.8166 68.1602 76.6768 62.657 78.9563C57.1538 81.2358 51.0983 81.8322 45.2561 80.6701C39.414 79.5081 34.0476 76.6397 29.8357 72.4277C25.6237 68.2158 22.7553 62.8494 21.5932 57.0072C20.4312 51.1651 21.0276 45.1095 23.3071 39.6063C25.5866 34.1032 29.4468 29.3995 34.3995 26.0902C39.3522 22.7809 45.1751 21.0145 51.1317 21.0145C59.1165 21.0234 66.7718 24.1993 72.418 29.8454C78.0641 35.4916 81.24 43.1468 81.2489 51.1317ZM74.5562 51.1317C74.5481 45.2078 72.2986 39.5065 68.2595 35.1731C64.2205 30.8397 58.6912 28.1954 52.7826 27.7714C50.1864 31.7005 50.0246 35.3007 50.0162 35.5321C50.0185 35.8279 50.1381 36.1108 50.3489 36.3184C50.5596 36.526 50.8442 36.6414 51.1401 36.6392C51.4359 36.637 51.7187 36.5173 51.9264 36.3066C52.134 36.0958 52.2494 35.8112 52.2471 35.5154C52.2471 34.6279 52.5997 33.7767 53.2273 33.1492C53.8548 32.5216 54.706 32.169 55.5935 32.169C56.481 32.169 57.3322 32.5216 57.9597 33.1492C58.5873 33.7767 58.9398 34.6279 58.9398 35.5154C58.9398 37.5862 58.1172 39.5723 56.6529 41.0366C55.1886 42.5009 53.2025 43.3235 51.1317 43.3235C49.0608 43.3235 47.0748 42.5009 45.6105 41.0366C44.1462 39.5723 43.3235 37.5862 43.3235 35.5154C43.3235 35.3341 43.3514 32.3949 44.8629 28.5661C40.6588 29.7338 36.8645 32.0524 33.9074 35.2608C30.9503 38.4691 28.9481 42.4395 28.1264 46.7247C27.3047 51.0098 27.6961 55.4392 29.2566 59.5138C30.8171 63.5885 33.4846 67.1462 36.9585 69.7862C40.4324 72.4262 44.5746 74.0435 48.9182 74.4558C53.2619 74.8681 57.6344 74.059 61.543 72.1197C65.4515 70.1805 68.7407 67.1881 71.04 63.4798C73.3392 59.7716 74.557 55.4949 74.5562 51.1317Z" fill="white"/>
</g>
<defs>
<clipPath id="clip0_8087_25183">
<rect width="60.3864" height="60.3864" fill="white" transform="translate(21.0145 21.0145)"/>
</clipPath>
</defs>
</svg>
