<svg width="100" height="100" viewBox="0 0 100 100" fill="none" xmlns="http://www.w3.org/2000/svg">
<circle cx="50" cy="50" r="50" fill="#247C6B"/>
<path d="M74.7363 24.3235C74.1275 23.7146 73.3675 23.279 72.5344 23.0614C71.7014 22.8439 70.8254 22.8524 69.9966 23.0859L69.9434 23.1029L23.4652 37.1934C22.5225 37.4668 21.6852 38.0201 21.0641 38.78C20.4429 39.5399 20.0673 40.4706 19.987 41.4488C19.9066 42.427 20.1253 43.4065 20.6141 44.2576C21.1029 45.1087 21.8387 45.7913 22.7241 46.2148L42.9758 56.084L52.8352 76.343C53.224 77.1698 53.8408 77.8684 54.6131 78.3566C55.3854 78.8449 56.281 79.1024 57.1946 79.0991C57.3327 79.0991 57.4731 79.0991 57.6136 79.0821C58.5944 79.0066 59.5283 78.6316 60.289 78.0078C61.0497 77.3841 61.6003 76.5416 61.8664 75.5946L75.9569 29.1164C75.964 29.0991 75.9696 29.0813 75.9738 29.0631C76.2074 28.2344 76.2159 27.3584 75.9983 26.5254C75.7808 25.6923 75.3452 24.9322 74.7363 24.3235ZM57.0009 71.6009L48.6769 54.4928L59.8175 43.3643C60.0878 43.094 60.3023 42.773 60.4486 42.4198C60.5949 42.0666 60.6702 41.688 60.6702 41.3057C60.6702 40.9234 60.5949 40.5448 60.4486 40.1916C60.3023 39.8384 60.0878 39.5175 59.8175 39.2471C59.5472 38.9768 59.2262 38.7623 58.873 38.616C58.5198 38.4697 58.1412 38.3944 57.7589 38.3944C57.3766 38.3944 56.998 38.4697 56.6448 38.616C56.2916 38.7623 55.9707 38.9768 55.7003 39.2471L44.5597 50.3877L27.4588 42.0589L69.8586 29.2012L57.0009 71.6009Z" fill="white"/>
</svg>
