<svg width="100" height="100" viewBox="0 0 100 100" fill="none" xmlns="http://www.w3.org/2000/svg">
<circle cx="50" cy="50" r="50" fill="#FFA793"/>
<path d="M74.0625 25.9375H25.9375C24.7772 25.9375 23.6644 26.3984 22.8439 27.2189C22.0234 28.0394 21.5625 29.1522 21.5625 30.3125V69.6875C21.5625 70.8478 22.0234 71.9606 22.8439 72.7811C23.6644 73.6016 24.7772 74.0625 25.9375 74.0625H29.5988C30.0128 74.0626 30.4184 73.9453 30.7683 73.7241C31.1183 73.5029 31.3983 73.1869 31.5758 72.8129C32.6395 70.5671 34.3189 68.6694 36.4188 67.3405C38.5186 66.0116 40.9525 65.3062 43.4375 65.3062C45.9225 65.3062 48.3564 66.0116 50.4562 67.3405C52.5561 68.6694 54.2355 70.5671 55.2992 72.8129C55.4767 73.1869 55.7567 73.5029 56.1067 73.7241C56.4566 73.9453 56.8622 74.0626 57.2762 74.0625H74.0625C75.2228 74.0625 76.3356 73.6016 77.1561 72.7811C77.9766 71.9606 78.4375 70.8478 78.4375 69.6875V30.3125C78.4375 29.1522 77.9766 28.0394 77.1561 27.2189C76.3356 26.3984 75.2228 25.9375 74.0625 25.9375ZM36.875 54.375C36.875 53.0771 37.2599 51.8083 37.981 50.7291C38.7021 49.6499 39.727 48.8087 40.9261 48.312C42.1253 47.8153 43.4448 47.6854 44.7178 47.9386C45.9908 48.1918 47.1601 48.8168 48.0779 49.7346C48.9957 50.6524 49.6207 51.8217 49.8739 53.0947C50.1271 54.3677 49.9972 55.6872 49.5005 56.8864C49.0038 58.0855 48.1626 59.1104 47.0834 59.8315C46.0042 60.5526 44.7354 60.9375 43.4375 60.9375C41.697 60.9375 40.0278 60.2461 38.7971 59.0154C37.5664 57.7847 36.875 56.1155 36.875 54.375ZM74.0625 69.6875H58.5941C56.7674 66.5469 54.0138 64.0483 50.7109 62.5344C52.3668 61.0599 53.5355 59.1171 54.0621 56.9633C54.5886 54.8095 54.4482 52.5466 53.6594 50.4744C52.8705 48.4023 51.4706 46.6189 49.6451 45.3605C47.8195 44.1021 45.6547 43.4283 43.4375 43.4283C41.2203 43.4283 39.0555 44.1021 37.2299 45.3605C35.4044 46.6189 34.0045 48.4023 33.2156 50.4744C32.4268 52.5466 32.2864 54.8095 32.8129 56.9633C33.3395 59.1171 34.5082 61.0599 36.1641 62.5344C32.8612 64.0483 30.1076 66.5469 28.2809 69.6875H25.9375V30.3125H74.0625V69.6875ZM30.3125 41.25V36.875C30.3125 36.2948 30.543 35.7384 30.9532 35.3282C31.3634 34.918 31.9198 34.6875 32.5 34.6875H67.5C68.0802 34.6875 68.6366 34.918 69.0468 35.3282C69.457 35.7384 69.6875 36.2948 69.6875 36.875V63.125C69.6875 63.7052 69.457 64.2616 69.0468 64.6718C68.6366 65.082 68.0802 65.3125 67.5 65.3125H63.125C62.5448 65.3125 61.9884 65.082 61.5782 64.6718C61.168 64.2616 60.9375 63.7052 60.9375 63.125C60.9375 62.5448 61.168 61.9884 61.5782 61.5782C61.9884 61.168 62.5448 60.9375 63.125 60.9375H65.3125V39.0625H34.6875V41.25C34.6875 41.8302 34.457 42.3866 34.0468 42.7968C33.6366 43.207 33.0802 43.4375 32.5 43.4375C31.9198 43.4375 31.3634 43.207 30.9532 42.7968C30.543 42.3866 30.3125 41.8302 30.3125 41.25Z" fill="white"/>
</svg>
