<svg width="100" height="100" viewBox="0 0 100 100" fill="none" xmlns="http://www.w3.org/2000/svg">
<circle cx="50" cy="50" r="50" fill="#B53DFF"/>
<path d="M50 22.9166C44.6435 22.9166 39.4072 24.505 34.9533 27.481C30.4995 30.4569 27.0282 34.6868 24.9783 39.6356C22.9284 44.5844 22.3921 50.03 23.4371 55.2837C24.4821 60.5373 27.0616 65.3631 30.8492 69.1508C34.6369 72.9384 39.4627 75.5179 44.7163 76.5629C49.97 77.6079 55.4155 77.0716 60.3644 75.0217C65.3132 72.9718 69.543 69.5005 72.519 65.0466C75.495 60.5928 77.0834 55.3565 77.0834 50C77.0758 42.8193 74.2199 35.935 69.1425 30.8575C64.065 25.7801 57.1806 22.9242 50 22.9166ZM69.9271 61.3072H61.1719L58.7604 57.9843L62.0495 48.4062L65.9558 47.1328L72.7891 52.375C72.4658 55.5188 71.4911 58.5609 69.9271 61.3072ZM27.2188 52.375L34.0391 47.1354L37.9453 48.4088L41.2344 57.9869L38.8282 61.3072H30.0729C28.5072 58.5613 27.5307 55.5192 27.2058 52.375H27.2188ZM29.8229 39.1875L31.2578 44.0312L27.2683 47.0755C27.622 44.3133 28.4799 41.6397 29.7995 39.1875H29.8229ZM45.0521 56.25L42.0677 47.5651L50 42.1119L57.9323 47.5651L54.9479 56.25H45.0521ZM68.7683 44.0312L70.2032 39.1875C71.5227 41.6397 72.3807 44.3133 72.7344 47.0755L68.7683 44.0312ZM67.1537 34.8177L64.6771 43.1718L60.7526 44.4453L52.0834 38.4869V34.4296L59.6589 29.2213C62.5122 30.5557 65.062 32.4603 67.1511 34.8177H67.1537ZM54.7058 27.5703L50 30.8046L45.2943 27.5703C48.3979 26.921 51.6022 26.921 54.7058 27.5703ZM40.3412 29.2213L47.9167 34.4296V38.4869L39.25 44.4453L35.3256 43.1718L32.849 34.8177C34.9381 32.4603 37.4879 30.5557 40.3412 29.2213ZM33.112 65.4739H38.4167L40.2839 70.7526C37.5725 69.4766 35.1363 67.6835 33.112 65.4739ZM45.3125 72.4296L42.2188 63.7265L44.6224 60.4166H55.3776L57.7813 63.7265L54.7006 72.4296C51.6005 73.0793 48.3995 73.0793 45.2995 72.4296H45.3125ZM59.7292 70.7526L61.5964 65.4739H66.9011C64.873 67.6848 62.4322 69.478 59.7162 70.7526H59.7292Z" fill="white"/>
</svg>
