<svg width="100" height="100" viewBox="0 0 100 100" fill="none" xmlns="http://www.w3.org/2000/svg">
<circle cx="50" cy="50" r="50" fill="#DA1A99"/>
<path d="M61.6254 36.4375C61.6254 37.2039 61.3982 37.9531 60.9724 38.5903C60.5466 39.2276 59.9414 39.7243 59.2333 40.0175C58.5253 40.3108 57.7461 40.3876 56.9944 40.2381C56.2428 40.0885 55.5523 39.7195 55.0104 39.1775C54.4684 38.6356 54.0994 37.9452 53.9499 37.1935C53.8004 36.4418 53.8771 35.6627 54.1704 34.9546C54.4637 34.2465 54.9603 33.6414 55.5976 33.2156C56.2348 32.7898 56.984 32.5625 57.7504 32.5625C58.7781 32.5625 59.7638 32.9708 60.4905 33.6975C61.2172 34.4242 61.6254 35.4098 61.6254 36.4375ZM78.0942 38.375C78.0949 38.854 77.9772 39.3258 77.7515 39.7483C77.5259 40.1708 77.1993 40.531 76.8009 40.7969L72.2817 43.8049V48.0625C72.274 54.9972 69.5158 61.6457 64.6122 66.5493C59.7086 71.4529 53.0601 74.2111 46.1254 74.2188H24.8129C23.9008 74.2177 23.0075 73.9592 22.2359 73.4729C21.4642 72.9866 20.8456 72.2923 20.4511 71.47C20.0566 70.6476 19.9023 69.7305 20.006 68.8244C20.1097 67.9182 20.4672 67.0597 21.0372 66.3477L21.0735 66.3041L41.2817 42.0514V37.6218C41.2817 28.9975 48.201 21.9474 56.7066 21.9063H56.7817C60.0158 21.9029 63.1697 22.9122 65.801 24.7925C68.4323 26.6728 70.4089 29.3298 71.4534 32.3906L76.8009 35.9531C77.1993 36.219 77.5259 36.5792 77.7515 37.0017C77.9772 37.4243 78.0949 37.896 78.0942 38.375ZM69.9494 38.375L67.3604 36.6482C66.7611 36.2522 66.3297 35.6482 66.1495 34.9529C65.6072 32.8813 64.3937 31.0477 62.6988 29.7389C61.0039 28.43 58.9231 27.7196 56.7817 27.7188H56.7356C51.4196 27.7454 47.0966 32.1871 47.0966 37.6218V43.1025C47.0964 43.7833 46.8573 44.4424 46.4209 44.9649L26.8885 68.4063H31.8485L48.7386 48.14C48.9791 47.8354 49.2782 47.582 49.6182 47.3948C49.9583 47.2076 50.3323 47.0904 50.7184 47.0502C51.1045 47.0099 51.4947 47.0474 51.866 47.1605C52.2373 47.2735 52.5822 47.4597 52.8804 47.7082C53.1786 47.9567 53.4239 48.2624 53.602 48.6073C53.7801 48.9522 53.8873 49.3292 53.9173 49.7162C53.9473 50.1032 53.8995 50.4923 53.7766 50.8605C53.6538 51.2287 53.4585 51.5685 53.2021 51.86L39.4144 68.4063H46.1254C51.5191 68.4005 56.6903 66.2553 60.5042 62.4413C64.3182 58.6274 66.4634 53.4562 66.4692 48.0625V42.25C66.4687 41.7708 66.5868 41.2989 66.8129 40.8763C67.0389 40.4538 67.366 40.0937 67.7649 39.8281L69.9494 38.375Z" fill="white"/>
</svg>
