<svg width="100" height="100" viewBox="0 0 100 100" fill="none" xmlns="http://www.w3.org/2000/svg">
<circle cx="50" cy="50" r="50" fill="#4F33DB"/>
<g clip-path="url(#clip0_7366_2676)">
<path d="M72.1138 53.5383C71.3392 52.9007 70.4373 52.4655 69.4793 52.2669C72.8668 48.1271 74.5813 43.9826 74.5813 39.8853C74.5813 33.1225 69.5122 27.6193 63.284 27.6193C60.2846 27.6038 57.4012 28.8629 55.2622 31.1222C53.1231 28.8629 50.2397 27.6038 47.2403 27.6193C41.0121 27.6193 35.943 33.1225 35.943 39.8853C35.943 42.2795 36.5401 44.6737 37.7476 47.1269C36.7838 47.5543 35.9085 48.1829 35.1724 48.9763L30.4546 54.0384H25.4052C24.2408 54.0384 23.124 54.5354 22.3005 55.4201C21.4771 56.3049 21.0145 57.5048 21.0145 58.756V68.1914C21.0145 69.4426 21.4771 70.6426 22.3005 71.5273C23.124 72.4121 24.2408 72.9091 25.4052 72.9091H47.3589C47.5743 72.9092 47.7888 72.8807 47.9977 72.8242L62.048 69.05C62.1824 69.0146 62.3139 68.9673 62.441 68.9085L70.9634 65.007C71.0139 64.9858 71.0622 64.9622 71.1105 64.9362C72.0636 64.4239 72.8797 63.6594 73.482 62.7147C74.0843 61.77 74.453 60.6762 74.5533 59.5361C74.6537 58.3961 74.4824 57.2474 74.0556 56.1981C73.6288 55.1489 72.9606 54.2335 72.1138 53.5383ZM47.2403 33.2805C48.4273 33.2608 49.5927 33.622 50.5876 34.3179C51.5825 35.0137 52.3616 36.0126 52.8253 37.1868C53.0238 37.7059 53.3614 38.15 53.7953 38.4625C54.2292 38.775 54.7398 38.9418 55.2622 38.9418C55.7845 38.9418 56.2951 38.775 56.729 38.4625C57.1629 38.15 57.5005 37.7059 57.699 37.1868C58.1627 36.0126 58.9418 35.0137 59.9367 34.3179C60.9316 33.622 62.097 33.2608 63.284 33.2805C66.5507 33.2805 69.3125 36.3046 69.3125 39.8853C69.3125 44.1454 66.0194 49.047 59.789 54.0832L58.7747 54.3356C58.7747 54.2365 58.7747 54.1374 58.7747 54.0384C58.7747 52.0364 58.0346 50.1165 56.7171 48.7009C55.3996 47.2853 53.6128 46.49 51.7496 46.49H43.5631C41.9627 44.0746 41.2118 41.954 41.2118 39.8853C41.2118 36.3046 43.9736 33.2805 47.2403 33.2805ZM26.2834 59.6996H28.9178V67.2479H26.2834V59.6996ZM68.8031 59.8435L60.5683 63.6176L47.0339 67.2479H34.1867V58.0484L38.8979 52.9863C39.1415 52.7218 39.4314 52.5118 39.7509 52.3685C40.0705 52.2251 40.4133 52.1513 40.7596 52.1513H51.7496C52.2154 52.1513 52.6621 52.3501 52.9915 52.704C53.3208 53.0579 53.5059 53.5379 53.5059 54.0384C53.5059 54.5388 53.3208 55.0188 52.9915 55.3727C52.6621 55.7266 52.2154 55.9254 51.7496 55.9254H45.6026C44.9039 55.9254 44.2338 56.2237 43.7397 56.7545C43.2457 57.2853 42.9681 58.0053 42.9681 58.756C42.9681 59.5068 43.2457 60.2267 43.7397 60.7576C44.2338 61.2884 44.9039 61.5867 45.6026 61.5867H52.6277C52.8264 61.5867 53.0245 61.563 53.2183 61.5159L67.9272 57.8809L68.0304 57.8526C68.1803 57.8088 68.3377 57.8026 68.4902 57.8347C68.6427 57.8667 68.7863 57.9361 68.9099 58.0373C69.0334 58.1386 69.1336 58.2691 69.2027 58.4187C69.2717 58.5683 69.3078 58.733 69.3081 58.8999C69.3092 59.0912 69.263 59.2792 69.1743 59.445C69.0856 59.6108 68.9575 59.7483 68.8031 59.8435Z" fill="white"/>
</g>
<defs>
<clipPath id="clip0_7366_2676">
<rect width="56.2012" height="60.3864" fill="white" transform="translate(21.0145 21.0145)"/>
</clipPath>
</defs>
</svg>