<svg width="100" height="100" viewBox="0 0 100 100" fill="none" xmlns="http://www.w3.org/2000/svg">
<path d="M71.8754 43.8752H59.3754C58.1322 43.8752 56.9399 43.3814 56.0608 42.5023C55.1818 41.6232 54.6879 40.431 54.6879 39.1877C54.6879 37.9445 55.1818 36.7523 56.0608 35.8732C56.9399 34.9941 58.1322 34.5002 59.3754 34.5002H71.8754C73.1186 34.5002 74.3109 34.9941 75.19 35.8732C76.069 36.7523 76.5629 37.9445 76.5629 39.1877C76.5629 40.431 76.069 41.6232 75.19 42.5023C74.3109 43.3814 73.1186 43.8752 71.8754 43.8752ZM40.6254 34.5002H39.0629V32.9377C39.0629 31.6945 38.569 30.5023 37.69 29.6232C36.8109 28.7441 35.6186 28.2502 34.3754 28.2502C33.1322 28.2502 31.9399 28.7441 31.0608 29.6232C30.1818 30.5023 29.6879 31.6945 29.6879 32.9377V34.5002H28.1254C26.8822 34.5002 25.6899 34.9941 24.8108 35.8732C23.9318 36.7523 23.4379 37.9445 23.4379 39.1877C23.4379 40.431 23.9318 41.6232 24.8108 42.5023C25.6899 43.3814 26.8822 43.8752 28.1254 43.8752H29.6879V45.4377C29.6879 46.681 30.1818 47.8732 31.0608 48.7523C31.9399 49.6314 33.1322 50.1252 34.3754 50.1252C35.6186 50.1252 36.8109 49.6314 37.69 48.7523C38.569 47.8732 39.0629 46.681 39.0629 45.4377V43.8752H40.6254C41.8686 43.8752 43.0609 43.3814 43.94 42.5023C44.819 41.6232 45.3129 40.431 45.3129 39.1877C45.3129 37.9445 44.819 36.7523 43.94 35.8732C43.0609 34.9941 41.8686 34.5002 40.6254 34.5002Z" fill="black"/>
<path fill-rule="evenodd" clip-rule="evenodd" d="M56.1332 64.1487H43.94H43.9067L28.477 81.2581L28.2426 81.4924C25.8923 83.8499 22.8506 85.3952 19.5607 85.9031C16.2708 86.4109 12.9046 85.8547 9.95292 84.3157C7.00119 82.7766 4.61816 80.335 3.15114 77.3468C1.68411 74.3586 1.20978 70.98 1.79728 67.7034V67.6253L8.16446 34.9299V34.8518C9.16292 29.0476 12.1878 23.7856 16.7011 20.0019C21.2144 16.2182 26.9235 14.158 32.8129 14.1877L67.1879 14.0706C73.0378 14.0819 78.6997 16.1381 83.1937 19.8831C87.6878 23.6281 90.7312 28.8264 91.7973 34.5784L91.9087 34.9299L98.2759 67.6253V67.7034C98.8634 70.98 98.3891 74.3586 96.922 77.3468C95.455 80.335 93.072 82.7766 90.1203 84.3157C87.1685 85.8547 83.8024 86.4109 80.5125 85.9031C77.2226 85.3952 74.1808 83.8499 71.8306 81.4924L71.5962 81.2581L56.1665 64.1487H56.1332ZM67.1879 23.4456C71.3319 23.4456 75.3062 25.0918 78.2364 28.022C80.4656 30.2512 81.9516 33.0845 82.5351 36.1372L82.6509 36.5706L89.0572 69.3831C89.2801 70.6822 89.0865 72.0186 88.5042 73.2012C87.9219 74.3837 86.9806 75.3519 85.8149 75.9673C84.6492 76.5826 83.3187 76.8137 82.0138 76.6273C80.7089 76.441 79.4963 75.8469 78.5493 74.9299L61.7525 56.3752C61.3179 55.882 60.7829 55.4873 60.1833 55.2178C59.5836 54.9483 58.9333 54.8102 58.2759 54.8127L57.8659 54.7386L41.7973 54.8127C41.1399 54.8102 40.4895 54.9483 39.8899 55.2178C39.2903 55.4873 38.7553 55.882 38.3207 56.3752L21.5238 74.9299C20.5769 75.8469 19.3643 76.441 18.0594 76.6273C16.7544 76.8137 15.424 76.5826 14.2583 75.9673C13.0926 75.3519 12.1513 74.3837 11.569 73.2012C10.9866 72.0186 10.7931 70.6822 11.016 69.3831L17.4223 36.5706C17.416 36.4777 17.4293 36.3845 17.4613 36.2971C18.128 32.7147 20.0288 29.4792 22.8334 27.1527C25.6379 24.8263 29.169 23.556 32.8129 23.5627L67.1879 23.4456Z" fill="black"/>
</svg>
