<svg width="100" height="101" viewBox="0 0 100 101" fill="none" xmlns="http://www.w3.org/2000/svg">
<path d="M23.2967 9.22388C19.7469 9.22388 16.9732 12.2888 17.3265 15.8209L24.4598 87.1542C24.7665 90.2214 27.3475 92.5572 30.43 92.5572H65.4035C68.486 92.5572 71.067 90.2214 71.3737 87.1542L78.5071 15.8209C78.8603 12.2888 76.0866 9.22388 72.5368 9.22388H23.2967ZM25.8334 17.5572H70.0001L68.7501 31.0155C54.9168 36.3072 49.3751 32.8489 47.4168 31.3489C46.3751 30.5572 44.8751 28.7655 42.1251 27.5155C39.3751 26.2239 35.6251 25.8905 31.2501 27.2239C29.5417 27.6822 28.2084 28.4322 27.0834 29.1822L25.8334 17.5572ZM36.9167 34.6822C37.7084 34.6822 38.1668 34.8489 38.6251 35.0572C39.5834 35.4739 40.4584 36.5155 42.3751 37.9739C45.9584 40.7239 54.2918 44.0572 67.7501 40.0989L63.3334 84.2239H32.5001L27.9584 38.6405C28.1667 38.3905 28.7917 37.9322 29.8751 37.1822C31.2501 36.3072 32.9584 35.3905 33.3334 35.2655H33.4584C35.0417 34.8072 36.1251 34.6405 36.9167 34.6822Z" fill="black"/>
</svg>
